<?xml version="1.0" encoding="utf-8"?>
<!-- Generator: Adobe Illustrator 18.1.1, SVG Export Plug-In . SVG Version: 6.00 Build 0)  -->
<!DOCTYPE svg PUBLIC "-//W3C//DTD SVG 1.1//EN" "http://www.w3.org/Graphics/SVG/1.1/DTD/svg11.dtd">
<svg version="1.1" id="レイヤー_1" xmlns="http://www.w3.org/2000/svg" xmlns:xlink="http://www.w3.org/1999/xlink" x="0px"
	 y="0px" viewBox="0 0 79.5 14.9" enable-background="new 0 0 79.5 14.9" xml:space="preserve">
<g>
	<g>
		<path fill="#FFFFFF" d="M1.6,3.2h5l-0.4,2H3.5L3.3,6.5H6l-0.4,2H2.9L2.6,10h2.8L5,12H0L1.6,3.2z"/>
		<path fill="#FFFFFF" d="M7.7,3.2H10L8.4,12H6.1L7.7,3.2z"/>
		<path fill="#FFFFFF" d="M11.4,3.2h4.8l-0.4,2h-2.6L13,6.7h2.5l-0.4,2h-2.5L12,12H9.7L11.4,3.2z"/>
		<path fill="#FFFFFF" d="M17.9,7.3l-2-4.1h2.6l1.1,2.5l1.9-2.5h2.6l-3.5,4.2l2.2,4.7h-2.6l-1.3-3.1L16.5,12h-2.5L17.9,7.3z"/>
		<path fill="#FFFFFF" d="M26.1,7.3l-2-4.1h2.6l1.1,2.5l1.9-2.5h2.6l-3.5,4.2l2.2,4.7h-2.6L27,8.9L24.6,12h-2.5L26.1,7.3z"/>
		<path fill="#FFFFFF" d="M32.3,3.2h2.3l-0.7,4l3.3-4h2.4l-3.7,4.4l2.4,4.5h-2.8l-1.7-3.8L32.9,12h-2.3L32.3,3.2z"/>
		<path fill="#FFFFFF" d="M51.5,8.7c-0.9,2.1-3,3.5-5.1,3.5c-2.8,0-4.3-2.2-3.8-4.6C43,5.3,45.2,3,48.1,3C50.9,3,52,5.1,52,6.5h-2.4
			C49.4,5.9,48.9,5,47.7,5c-1.5,0-2.6,1.3-2.9,2.6c-0.3,1.3,0.4,2.6,1.9,2.6c1.4,0,2.2-1.2,2.4-1.5H51.5z"/>
		<path fill="#FFFFFF" d="M53.5,3.2h2.3L54.1,12h-2.3L53.5,3.2z"/>
		<path fill="#FFFFFF" d="M55.9,7.7C56.5,4.8,59,3,61.5,3c2.7,0,4.3,2.1,3.8,4.6c-0.5,2.5-2.8,4.6-5.6,4.6C57,12.2,55.5,10,55.9,7.7
			L55.9,7.7z M58.2,7.6c-0.3,1.4,0.4,2.6,2,2.6c1.6,0,2.7-1.5,2.9-2.6C63.3,6.5,62.8,5,61.1,5C59.6,5,58.4,6.3,58.2,7.6L58.2,7.6z"
			/>
		<path fill="#FFFFFF" d="M67.1,3.2h5l-0.4,2H69l-0.3,1.4h2.7l-0.4,2h-2.7L68.1,10h2.8l-0.4,2h-5L67.1,3.2z"/>
		<path fill="#FFFFFF" d="M73.2,3.2h2.9c1.4,0,2.2,0.3,2.6,0.6c0.6,0.6,0.8,1.5,0.6,2.4c-0.1,0.7-0.4,1.2-0.7,1.6
			c-0.4,0.5-0.9,0.8-1.3,0.9l1.2,3.3h-2.3l-1.5-4.3h0.4c0.6,0,1.1,0,1.4-0.2c0.3-0.2,0.6-0.6,0.7-1.1c0.1-0.5-0.1-0.8-0.3-1
			c-0.2-0.2-0.6-0.2-0.9-0.2h-0.8L73.8,12h-2.3L73.2,3.2z"/>
	</g>
	<g>
		<path fill="#FFFFFF" d="M60.9,0h2.3l-2.9,14.9h-2.3L60.9,0z"/>
	</g>
</g>
</svg>
