<?xml version="1.0" encoding="utf-8"?>
<!-- Generator: Adobe Illustrator 18.1.1, SVG Export Plug-In . SVG Version: 6.00 Build 0)  -->
<!DOCTYPE svg PUBLIC "-//W3C//DTD SVG 1.1//EN" "http://www.w3.org/Graphics/SVG/1.1/DTD/svg11.dtd">
<svg version="1.1" id="レイヤー_1" xmlns="http://www.w3.org/2000/svg" xmlns:xlink="http://www.w3.org/1999/xlink" x="0px"
	 y="0px" viewBox="0 32 128 64" enable-background="new 0 32 128 64" xml:space="preserve">
<g>
	<path d="M15.2,57.6h6.4v2.5h-3.5v1.8h3.4v2.5h-3.4v1.9h3.5V69h-6.4C15.2,69,15.2,57.6,15.2,57.6z"/>
	<path d="M23.3,57.6h2.9V69h-2.9V57.6z"/>
	<path d="M27.6,57.6h6.2v2.5h-3.3v1.9h3.2v2.5h-3.2V69h-2.9V57.6z"/>
	<path d="M37.9,57.6v6.8c0,0.4,0,0.9,0.2,1.4c0.2,0.4,0.6,0.8,1.3,0.8c0.7,0,1.1-0.3,1.3-0.7c0.2-0.4,0.2-1,0.2-1.4v-6.8h2.9v6.8
		c0,1.9-0.4,2.7-1.1,3.5c-0.7,0.8-1.8,1.2-3.2,1.2c-0.8,0-2.3-0.2-3.3-1.2c-0.9-1-1.1-1.8-1.1-3.5v-6.8H37.9z"/>
	<path d="M45.4,57.6h2.9v5.1l3.2-5.1h3l-3.7,5.6L55,69h-3.5l-3.1-4.9V69h-2.9L45.4,57.6L45.4,57.6z"/>
	<path d="M57.6,57.6v6.8c0,0.4,0,0.9,0.2,1.4c0.2,0.4,0.6,0.8,1.3,0.8c0.7,0,1.1-0.3,1.3-0.7c0.2-0.4,0.2-1,0.2-1.4v-6.8h2.9v6.8
		c0,1.9-0.4,2.7-1.1,3.5c-0.7,0.8-1.8,1.2-3.2,1.2c-0.8,0-2.3-0.2-3.3-1.2c-0.9-1-1.1-1.8-1.1-3.5v-6.8H57.6z"/>
	<path d="M75.3,66.5c-0.8,1.3-2.6,2.7-4.9,2.7c-3.2,0-5.9-2.5-5.9-5.9c0-3.4,2.6-5.9,5.9-5.9c2.4,0,4.1,1.4,5,2.7h-0.5
		c-0.4-0.6-1.9-2.3-4.4-2.3c-3,0-5.4,2.3-5.4,5.4c0,3.1,2.4,5.4,5.4,5.4c2.6,0,4.1-1.8,4.4-2.2L75.3,66.5L75.3,66.5z"/>
	<path d="M77.1,57.6h0.5V69h-0.5V57.6z"/>
	<path d="M82.4,57.6c1.3,0,2.1,0.1,2.8,0.7c0.7,0.5,1.1,1.5,1.1,2.5c0,1-0.5,2.1-1.1,2.5c-0.8,0.6-1.5,0.7-2.8,0.7h-2.2V69h-0.5
		V57.6H82.4z M80.2,63.7h2.2c1.3,0,1.9-0.2,2.6-0.6c0.6-0.4,0.9-1.3,0.9-2.2c0-0.9-0.4-1.8-0.9-2.2c-0.6-0.5-1.3-0.6-2.6-0.6h-2.2
		C80.2,58.1,80.2,63.7,80.2,63.7z"/>
	<path d="M87.7,69V57.6h0.5v5.4h6.3v-5.4H95V69h-0.5v-5.5h-6.3V69H87.7z"/>
	<path d="M97.3,57.6h6.2V58h-5.8v5h5.8v0.4h-5.8v5.1h5.8V69h-6.2V57.6z"/>
	<path d="M105.5,57.6h2.6c1.8,0,2.5,0.2,3,0.5c0.9,0.5,1.6,1.7,1.6,3c0,0.7-0.2,1.6-0.7,2.3c-0.8,1.1-1.8,1.2-3.1,1.3l3,4.3h-0.6
		l-3.3-4.7h0.3c0.8,0,2.2,0,2.9-0.7c0.7-0.8,1-1.5,1-2.4c0-1-0.5-2.1-1.3-2.6c-0.7-0.4-1.5-0.5-2.8-0.5H106V69h-0.5L105.5,57.6
		L105.5,57.6z"/>
</g>
</svg>
