<?xml version="1.0" encoding="utf-8"?>
<!-- Generator: Adobe Illustrator 18.1.1, SVG Export Plug-In . SVG Version: 6.00 Build 0)  -->
<!DOCTYPE svg PUBLIC "-//W3C//DTD SVG 1.1//EN" "http://www.w3.org/Graphics/SVG/1.1/DTD/svg11.dtd">
<svg version="1.1" id="レイヤー_1" xmlns="http://www.w3.org/2000/svg" xmlns:xlink="http://www.w3.org/1999/xlink" x="0px"
	 y="0px" viewBox="0 0 446 469.9" enable-background="new 0 0 446 469.9" xml:space="preserve">
<g id="HLKOQ5_1_">
	
		<image overflow="visible" width="229" height="223" id="HLKOQ5" xlink:href="CE714B01F38BA6A7.png"  transform="matrix(1 0 0 1 790.5747 210.771)">
	</image>
</g>
<g>
	<path fill="#FFFEFE" d="M11.8,9.5h3.4l21,73.4L56,9.5h2.2l20.3,73.4L99.2,9.5h3.3L80.2,87.1h-4.1l-19-69.4l-19,69.4h-4.2L11.8,9.5z
		"/>
	<path fill="#FFFEFE" d="M104.3,59.6c0.2,18.2,15.4,26.2,26.4,26.1c10.3,0,19.3-5.2,23.7-14.7h3.3c-2.5,5.9-6.5,10.3-11.2,13.2
		c-4.7,2.8-10.2,4.2-15.9,4.2c-21,0-29.3-16.7-29.3-29.1c0-16.7,12.8-29.3,29.4-29.3c7.5,0,14.6,2.6,19.9,7.5
		c6.1,5.5,9.7,13.9,9.1,22H104.3z M156.8,56.9c-0.6-13.4-13.1-24.6-26.1-24c-13.8,0-25.4,10-26.2,24H156.8z"/>
	<path fill="#FFFEFE" d="M254.6,87.1h-2.9V72.8c-5,10-14.3,15.7-26,15.7c-18.3,0-29.3-14.2-29.3-29.2c0-15.3,11.3-29.2,29.3-29.2
		c13.4,0,23.1,8.3,26,16.1V31.5h2.9V87.1z M199.3,59.4c0.1,12.5,8.7,26.4,26.7,26.4c11.9,0,20.9-7.2,24.5-17.3
		c1.2-3,1.7-6.4,1.6-9.8c0-3.4-0.6-6.7-1.9-9.7c-3.8-9.7-13.1-16.2-24.5-16.2c-14.5,0-26.4,10.8-26.4,26.5V59.4z"/>
	<path fill="#FFFEFE" d="M271,31.5h2.9v10.6c5.2-11,14.8-11.7,19.6-12V33h-0.8c-11.9,0-18.8,8.6-18.8,23.7v30.4H271V31.5z"/>
	<path fill="#FFFEFE" d="M295.6,59.6c0.2,18.2,15.4,26.2,26.4,26.1c10.3,0,19.3-5.2,23.7-14.7h3.3c-2.5,5.9-6.5,10.3-11.2,13.2
		c-4.7,2.8-10.2,4.2-15.9,4.2c-21,0-29.3-16.7-29.3-29.1c0-16.7,12.8-29.3,29.4-29.3c7.5,0,14.6,2.6,19.9,7.5
		c6.1,5.5,9.7,13.9,9.1,22H295.6z M348.1,56.9c-0.6-13.4-13.1-24.6-26.1-24c-13.8,0-25.4,10-26.2,24H348.1z"/>
	<path fill="#FFFEFE" d="M82.7,179.1c-4.7,16.1-19.8,27.5-38,27.5C21,206.6,4,187.8,4,166.2C4,145.5,20.1,126,44.6,126
		c22.4,0.1,35.1,16.6,38.1,27.9H66.3c-2.4-5.4-9.3-14.1-21.7-14.2c-15.1,0-24.9,12.7-24.9,26.5c0,14.2,10.2,26.7,25,26.7
		c13.9,0,20.2-10.9,21.6-13.8H82.7z"/>
	<path fill="#FFFEFE" d="M92.8,147.5h13v7.6c2.5-5.1,7.2-9.2,16-9.3v13.9h-0.6c-9.7,0-14.6,4.5-14.6,14.5v31.1H92.8V147.5z"/>
	<path fill="#FFFEFE" d="M137.1,180.9c0.6,9.2,8.8,14.4,16.7,14.3c6.7,0,11.2-3,13.9-7.8h14.2c-2.7,6.4-6.8,11.2-11.7,14.5
		c-4.8,3.4-10.5,5-16.5,5c-17.7,0-30.4-14.4-30.4-30.4c0-16.4,12.8-30.8,30.2-30.8c8.6,0,16.2,3.3,21.5,8.8c7,7.2,9.7,16.3,8.5,26.4
		H137.1z M170,170.4c-0.5-5.5-6.3-13.1-16.4-13c-10.2,0-15.7,7.3-16.3,13H170z"/>
	<path fill="#FFFEFE" d="M253.5,205.1h-13.8v-8.3c-3.7,6.7-11.3,10.1-19.4,10.1c-18.5,0-29.3-14.4-29.3-30.7
		c0-18.2,13.1-30.6,29.3-30.6c10.5,0,16.9,5.6,19.4,10.2v-8.4h13.8V205.1z M204.7,176.6c0,7.1,5.1,17.5,17.5,17.5
		c7.7,0,12.7-4,15.3-9.2c1.4-2.5,2-5.2,2.2-8.1c0.1-2.7-0.4-5.6-1.6-8.1c-2.4-5.5-7.8-10.2-16.1-10.2c-11.1,0-17.4,9-17.4,18V176.6z
		"/>
	<path fill="#FFFEFE" d="M270.9,158.1h-9.6v-10.6h9.6v-20.1h13.8v20.1h9.9v10.6h-9.9v47h-13.8V158.1z"/>
	<path fill="#FFFEFE" d="M302.5,127.5h13.8v12.3h-13.8V127.5z M302.5,147.5h13.8v57.6h-13.8V147.5z"/>
	<path fill="#FFFEFE" d="M359.3,205.1h-13.4l-21.4-57.6h14.3l13.9,40.3l13.9-40.3h14.3L359.3,205.1z"/>
	<path fill="#FFFEFE" d="M396,180.9c0.6,9.2,8.8,14.4,16.7,14.3c6.7,0,11.2-3,13.9-7.8h14.2c-2.7,6.4-6.8,11.2-11.7,14.5
		c-4.8,3.4-10.5,5-16.5,5c-17.7,0-30.4-14.4-30.4-30.4c0-16.4,12.8-30.8,30.2-30.8c8.6,0,16.2,3.3,21.5,8.8c7,7.2,9.7,16.3,8.5,26.4
		H396z M428.8,170.4c-0.5-5.5-6.3-13.1-16.4-13c-10.2,0-15.7,7.3-16.3,13H428.8z"/>
	<path fill="#FFFEFE" d="M28.2,259.2H11.4v-13.8h49.1v13.8H43.9v63.9H28.2V259.2z"/>
	<path fill="#FFFEFE" d="M70.6,298.9c0.6,9.2,8.8,14.4,16.7,14.3c6.7,0,11.2-3,13.9-7.8h14.2c-2.7,6.4-6.8,11.2-11.7,14.5
		c-4.8,3.4-10.5,5-16.5,5c-17.7,0-30.4-14.4-30.4-30.4c0-16.4,12.8-30.8,30.2-30.8c8.6,0,16.2,3.3,21.5,8.8c7,7.2,9.7,16.3,8.5,26.4
		H70.6z M103.4,288.4c-0.5-5.5-6.3-13.1-16.4-13c-10.2,0-15.7,7.3-16.3,13H103.4z"/>
	<path fill="#FFFEFE" d="M186.9,323.1h-13.8v-8.3c-3.7,6.7-11.3,10.1-19.4,10.1c-18.5,0-29.3-14.4-29.3-30.7
		c0-18.2,13.1-30.6,29.3-30.6c10.5,0,16.9,5.6,19.4,10.2v-8.4h13.8V323.1z M138.2,294.6c0,7.1,5.1,17.5,17.5,17.5
		c7.7,0,12.7-4,15.3-9.2c1.4-2.5,2-5.2,2.2-8.1c0.1-2.7-0.4-5.6-1.6-8.1c-2.4-5.5-7.8-10.2-16.1-10.2c-11.1,0-17.4,9-17.4,18V294.6z
		"/>
	<path fill="#FFFEFE" d="M200.5,265.5h12.9v7.2c1.3-2.6,6.8-9,16.8-9c4.7,0,10,1.4,14.2,5.9c1.3,1.4,2.7,3.8,3.5,5.2
		c1-1.8,2.3-3.7,4.2-5.5c3.6-3.4,8.6-5.7,14.7-5.7c4.8,0,10.9,1.3,15.3,5.8c5.2,5.5,6.3,10.2,6.3,22v31.6h-13.8v-31.1
		c0-3.7-0.3-7.7-2.3-10.7c-1.5-2.8-4.2-4.7-9-4.7c-4.8,0-8.2,2.1-10,5.2c-1.8,3.2-2,6.2-2,9.7v31.6h-13.8v-31.6
		c0-3.4-0.3-6.6-1.8-9.6c-1.7-3-4.5-5.2-9.4-5.4c-5,0-8.2,2.4-9.9,5.4c-1.7,3-2.2,6.6-2.2,10v31.2h-13.8V265.5z"/>
	<path fill="#FFFEFE" d="M332.2,245.5h2.9v9.6h-2.9V245.5z M332.2,267.5h2.9v55.6h-2.9V267.5z"/>
	<path fill="#FFFEFE" d="M351.5,267.5h2.9c0,3.8,0,7.5-0.1,12.1c3.8-9.7,13.4-13.6,23.3-13.4c16.6,0.4,24.9,10.4,24.9,27.1v29.9
		h-2.9v-29.9c0-15-7.3-24.6-22.6-24.4c-13.2,0.2-22.6,7.7-22.6,22.3v32h-2.9V267.5z"/>
	<path fill="#FFFEFE" d="M18.6,363.5h42.6v2.8H21.7v34.3h39.5v2.8H21.7v34.9h39.5v2.8H18.6V363.5z"/>
	<path fill="#FFFEFE" d="M76.1,363.5h2.9v9.6h-2.9V363.5z M76.1,385.5h2.9v55.6h-2.9V385.5z"/>
	<path fill="#FFFEFE" d="M97.1,388.2H88v-2.7h9.1v-5.6c0-17.7,14.5-17.7,17.4-17.8v2.8c-4.2,0.3-14.5,0.3-14.5,15.9v4.7h14.5v2.7
		h-14.5v52.9h-2.9V388.2z"/>
	<path fill="#FFFEFE" d="M174,441.1H171c0-3.8,0-7.5,0.1-12.1c-3.8,9.7-13.4,13.6-23.3,13.4c-16.6-0.4-24.9-10.4-24.9-27.1v-29.9
		h2.9v29.9c0,15,7.3,24.6,22.6,24.4c13.2-0.2,22.6-7.7,22.6-22.3v-32h2.9V441.1z"/>
	<path fill="#FFFEFE" d="M190.4,363.5h2.9v46.4l29.9-24.4h4L197.5,410l32,31.2h-4l-32.2-31.1v31.1h-2.9V363.5z"/>
	<path fill="#FFFEFE" d="M290.3,441.1h-2.9c0-3.8,0-7.5,0.1-12.1c-3.8,9.7-13.4,13.6-23.3,13.4c-16.6-0.4-24.9-10.4-24.9-27.1v-29.9
		h2.9v29.9c0,15,7.3,24.6,22.6,24.4c13.2-0.2,22.6-7.7,22.6-22.3v-32h2.9V441.1z"/>
</g>
</svg>
